<?xml version="1.0" standalone="no"?><!DOCTYPE svg PUBLIC "-//W3C//DTD SVG 1.1//EN" "http://www.w3.org/Graphics/SVG/1.1/DTD/svg11.dtd"><svg t="1581777129392" class="icon" viewBox="0 0 1024 1024" version="1.1" xmlns="http://www.w3.org/2000/svg" p-id="1862" xmlns:xlink="http://www.w3.org/1999/xlink" width="200" height="200"><defs><style type="text/css"></style></defs><path d="M877.1285168 1007.51031349l-730.24585727 0c-57.55529536 0-104.3208371-46.80528206-104.32083712-104.30096634L42.56182362 772.76980231c0-14.39875922 11.72119127-26.04171022 26.13857972-26.0417102 14.32051894 0 26.02183946 11.642951 26.02183944 26.0417102l0 130.43954484c0 28.71927815 23.38277027 52.08341921 52.16041795 52.08341921l730.24585728 0c28.79751843 0 52.16041794-23.36414227 52.16041795-52.08341921L929.28893596 772.76980231c0-14.39875922 11.72119127-26.04171022 26.13857968-26.0417102s26.02183946 11.642951 26.02183947 26.0417102l0 130.43954484C981.4493539 960.70627297 934.64407184 1007.51031349 877.1285168 1007.51031349L877.1285168 1007.51031349zM686.94045491 608.64207745c-5.10302739 5.12289815-11.72119127 7.64522708-18.45361111 7.64522706-6.71379061 0-13.33071295-2.52232894-18.43498188-7.64522706-10.18742678-10.16879756-10.18742678-26.68129543 0-36.85009425l234.72188196-234.76038194c10.18742678-10.16879756 26.70116622-10.16879756 36.88859299 0 10.18742678 10.2457963 10.18742678 26.7396662 0 36.92709297L686.94045491 608.64207745 686.94045491 608.64207745zM521.99927658 770.81006111c-3.20165569 1.33878397-6.61692112 1.95974122-9.99368781 1.9597412-6.77216134 0-13.44745321-2.63906919-18.43498189-7.64522708l-391.203137-391.16463824c-10.18742678-10.18742678-10.18742678-26.68129543 0-36.92709298 10.18742678-10.16879756 26.70116622-10.16879756 36.88859298 0l346.72768766 346.72768767L485.9837493 42.52394503c0-14.39875922 11.62308025-26.04171022 26.02183947-26.0417102 14.41738844 0 26.13857969 11.642951 26.1385797 26.0417102l0 704.20414708C538.14416726 757.2259969 531.72098511 766.77383722 521.99927658 770.81006111L521.99927658 770.81006111z" p-id="1863"></path></svg>