<?xml version="1.0" standalone="no"?><!DOCTYPE svg PUBLIC "-//W3C//DTD SVG 1.1//EN" "http://www.w3.org/Graphics/SVG/1.1/DTD/svg11.dtd"><svg t="1581777111363" class="icon" viewBox="0 0 1024 1024" version="1.1" xmlns="http://www.w3.org/2000/svg" p-id="1361" xmlns:xlink="http://www.w3.org/1999/xlink" width="200" height="200"><defs><style type="text/css"></style></defs><path d="M512.956791 31.828916c-265.723967 0-481.127875 215.404931-481.127875 481.127875s215.404931 481.127875 481.127875 481.127875c110.330828 0 215.029378-37.269835 299.56675-104.604406 10.115382-8.073886 11.80486-22.836101 3.708462-32.975019-8.072863-10.138918-22.836101-11.80486-32.951483-3.731998-76.276221 60.762899-170.718173 94.371344-270.323729 94.371344-239.789295 0-434.18882-194.399525-434.18882-434.18882s194.399525-434.18882 434.18882-434.18882 434.18882 194.399525 434.18882 434.18882c0 82.214467-22.883173 161.001881-65.36266 229.251288-6.876618 10.984169-3.520173 25.487487 7.486508 32.341592 11.007705 6.853082 25.464975 3.496637 32.341592-7.510044 47.127344-75.642794 72.474638-163.019841 72.474638-254.082836C994.084667 247.232824 778.679735 31.828916 512.956791 31.828916z" p-id="1362"></path><path d="M548.160571 289.994744c0-12.955056-10.490935-23.469528-23.469528-23.469528-12.955056 0-23.469528 10.514471-23.469528 23.469528l0 41.072441c0 12.955056 10.514471 23.469528 23.469528 23.469528 12.978593 0 23.469528-10.514471 23.469528-23.469528L548.160571 289.994744z" p-id="1363"></path><path d="M524.691043 407.342382c-12.955056 0-23.469528 10.514471-23.469528 23.469528l0 299.238268c0 12.978593 10.514471 23.469528 23.469528 23.469528 12.978593 0 23.469528-10.490935 23.469528-23.469528L548.160571 430.812933C548.160571 417.856853 537.669636 407.342382 524.691043 407.342382z" p-id="1364"></path></svg>