<?xml version="1.0" standalone="no"?><!DOCTYPE svg PUBLIC "-//W3C//DTD SVG 1.1//EN" "http://www.w3.org/Graphics/SVG/1.1/DTD/svg11.dtd"><svg t="1581855031196" class="icon" viewBox="0 0 1024 1024" version="1.1" xmlns="http://www.w3.org/2000/svg" p-id="1229" xmlns:xlink="http://www.w3.org/1999/xlink" width="200" height="200"><defs><style type="text/css"></style></defs><path d="M759.44667549 1006.89335097H388.98365275c-14.13981003 0-24.03767705-11.31184801-24.03767704-24.03767704 0-14.13981003 11.31184801-24.03767705 24.03767704-24.03767703h370.46302274c26.86563906 0 49.48933509-12.72582902 63.62914513-35.34952509 9.89786702-24.03767705 110.29051822-278.55425755 130.08625225-353.4952507 16.96777203-66.45710714-21.20971504-134.32819526-87.66682217-151.2959673-9.89786702-2.82796201-19.79573404-4.24194301-32.52156306-4.241943H684.50568234c-8.48388603 0-15.55379103-4.24194301-19.79573404-11.31184802-4.24194301-7.06990501-5.65592402-15.55379103-2.82796201-22.62369605 14.13981003-38.17748707 22.62369604-127.25829025 22.62369605-238.96278948 0-41.00544908-33.93554407-73.52701215-73.52701214-73.52701214-41.00544908 0-73.52701215 33.93554407-73.52701215 73.52701214v24.03767705c0 164.02179632-132.91421426 296.93601058-296.93601058 296.9360106-14.13981003 0-24.03767705-11.31184801-24.03767706-24.03767706 0-14.13981003 11.31184801-24.03767705 24.03767706-24.03767704 135.74217627 0 247.44667549-110.29051822 247.44667548-247.4466755v-24.03767704c0-67.87108813 55.14525911-123.01634725 123.01634725-123.01634725 67.87108813 0 123.01634725 55.14525911 123.01634724 123.01634725 0 59.38720211-2.82796201 156.95189131-16.96777203 223.40899843h115.94644223c16.96777203 0 31.10758207 1.41398101 45.24739208 5.65592403 91.90876518 24.03767705 147.05402429 120.18838525 123.01634726 212.09715042-21.20971504 79.18293616-128.67227125 349.2533077-132.91421428 360.56515571 0 1.41398101-1.41398101 2.82796201-1.41398101 2.827962-21.20971504 36.76350606-59.38720211 59.38720211-101.80663219 60.80118312-2.82796201-1.41398101-4.24194301-1.41398101-5.65592401-1.41398101z" p-id="1230"></path><path d="M240.51564747 1006.89335097H116.08531921c-55.14525911 0-98.9786702-43.83341109-98.97867018-98.97867018V512c0-55.14525911 43.83341109-98.9786702 98.97867018-98.9786702h123.01634724c14.13981003 0 24.03767705 11.31184801 24.03767706 24.03767706v544.38268606c1.41398101 14.13981003-9.89786702 25.45165805-22.62369604 25.45165805zM116.08531921 462.51066491c-26.86563906 0-49.48933509 22.62369604-49.48933509 49.48933509v395.91468079c0 26.86563906 22.62369604 49.48933509 49.48933509 49.48933509h98.97867021v-494.89335097h-98.97867021z" p-id="1231"></path></svg>