<?xml version="1.0" standalone="no"?><!DOCTYPE svg PUBLIC "-//W3C//DTD SVG 1.1//EN" "http://www.w3.org/Graphics/SVG/1.1/DTD/svg11.dtd"><svg t="1581777119881" class="icon" viewBox="0 0 1024 1024" version="1.1" xmlns="http://www.w3.org/2000/svg" p-id="1609" xmlns:xlink="http://www.w3.org/1999/xlink" width="200" height="200"><defs><style type="text/css"></style></defs><path d="M797.20296298 258.59413333m-39.20023706 0a39.20023703 39.20023703 0 1 0 78.40047407 0 39.20023703 39.20023703 0 1 0-78.40047407 0Z" p-id="1610"></path><path d="M903.27419259 490.0333037m-55.09878518 0a55.09878518 55.09878518 0 1 0 110.19757037 0 55.09878518 55.09878518 0 1 0-110.19757037 0Z" p-id="1611"></path><path d="M848.29677037 765.16314075m-69.17688889 1e-8a69.17688889 69.17688889 0 1 0 138.35377777-1e-8 69.17688889 69.17688889 0 1 0-138.35377777 1e-8Z" p-id="1612"></path><path d="M591.49274075 927.06133334m-78.27911111-1e-8a78.27911111 78.27911111 0 1 0 156.55822221 0 78.27911111 78.27911111 0 1 0-156.55822221 0Z" p-id="1613"></path><path d="M303.74115555 877.05979259m-93.57084444 0a93.57084445 93.57084445 0 1 0 187.14168889 0 93.57084445 93.57084445 0 1 0-187.14168889 0Z" p-id="1614"></path><path d="M114.5362963 613.45943703m-105.70714076 0a105.70714075 105.70714075 0 1 0 211.41428149 0 105.70714075 105.70714075 0 1 0-211.41428149 0Z" p-id="1615"></path><path d="M186.26180741 297.79437037m-117.47934816 1e-8a117.47934815 117.47934815 0 1 0 234.9586963-1e-8 117.47934815 117.47934815 0 1 0-234.9586963 1e-8Z" p-id="1616"></path><path d="M511.15045925 141.11478517m-122.94068148 1e-8a122.94068148 122.94068148 0 1 0 245.88136298 0 122.94068148 122.94068148 0 1 0-245.88136298 0Z" p-id="1617"></path></svg>