<?xml version="1.0" standalone="no"?><!DOCTYPE svg PUBLIC "-//W3C//DTD SVG 1.1//EN" "http://www.w3.org/Graphics/SVG/1.1/DTD/svg11.dtd"><svg t="1581855025157" class="icon" viewBox="0 0 1024 1024" version="1.1" xmlns="http://www.w3.org/2000/svg" p-id="1106" xmlns:xlink="http://www.w3.org/1999/xlink" width="200" height="200"><defs><style type="text/css"></style></defs><path d="M825.60601799 647.538283L819.263571 660.258455 827.207981 672.04471001 905.32729401 787.941807 908.52362 756.858321 769.540324 892.37387301 799.04025001 888.884996 671.47766 812.883319 660.919793 806.59295401 649.583401 811.338837C641.52438599 814.71267399 633.321491 817.79504201 625.041941 820.560337L611.811631 824.97914201 608.915804 838.62396201 580.99654599 970.17648599 604.84630399 950.85714299 408.272431 950.85714101 431.938677 969.378097 397.841517 831.672939 394.800523 819.391548 383.00764799 814.80806201C375.650317 811.94851799 368.359849 808.82927799 361.19017999 805.473457L349.01756199 799.77596599 337.70121399 807.02678401 217.88134 883.799985 248.055031 886.871665 109.071736 751.363721 112.710251 781.76828801 190.651237 657.409417 197.546671 646.40739402 192.26576001 634.545545C188.597667 626.30636599 185.255827 617.89434 182.26690199 609.37788199L177.674889 596.293685 164.08200199 593.552105 29.201333 566.34771801 48.761905 590.247401 48.761905 398.59747001 29.96636 422.33002199 171.221091 389.086012 183.450436 386.207861 188.204044 374.578423C191.634415 366.18620999 195.42103701 357.903851 199.53053799 349.803328L205.959792 337.13018199 198.10125399 325.29011001 124.686421 214.67958401 121.52627301 245.488151 259.68703799 108.70121601 229.912147 112.235203 352.693357 186.52431399 363.28722601 192.934163 374.712497 188.16138799C381.330477 185.396804 388.053308 182.826231 394.835279 180.46681001L407.314641 176.12529001 410.490432 163.299629 443.437389 30.241004 419.771153 48.761905 616.32719401 48.761905 592.477417 29.44247399 621.32508801 165.37204 624.105103 178.471403 636.65120199 183.152979C646.84188599 186.955632 656.865493 191.232395 666.62768201 195.943104L678.796045 201.814904 690.225485 194.609697 803.674639 123.090468 773.79190199 120.057533 914.162801 254.754833 910.479401 224.06547002 834.21022699 343.81367001 827.217813 354.792273 832.44954199 366.710857C836.047972 374.908567 839.325363 383.281107 842.252943 391.75286999L846.63932999 404.446089 859.71200599 407.52234 994.034289 439.130935 975.238095 415.398229 975.238095 607.04816001 994.798163 583.14858 852.98281799 611.75474999 840.250379 614.323063 835.279123 626.32297401C832.31875001 633.46889799 829.086927 640.557101 825.60601799 647.538283ZM857.803703 635.65432999L862.624587 659.553909 1004.439932 630.94774 1024 627.002195 1024 607.04816001 1024 415.398229 1024 396.088627 1005.20380601 391.665525 870.881523 360.05692799 865.29676599 383.78963401 888.340587 375.82639801C884.98377001 366.112521 881.22674999 356.514699 877.099219 347.111631L854.774381 356.911245 875.33853399 370.008819 951.60770601 250.260619 962.34230999 233.406505 947.924307 219.571255 807.55340599 84.873956 793.797813 71.674344 777.670669 81.841021 664.221513 153.36025001 677.223499 173.984973 687.819315 152.02684199C676.702449 146.66243899 665.295885 141.79561001 653.69852599 137.46805702L645.174865 160.31051799 669.02464 155.248996 640.176969 19.31943001 636.0769 0 616.32719401 0 419.771153 0 400.690923 0 396.104919 18.520901 363.157965 151.579527 386.82419799 157.43957801 378.81311801 134.41234601C371.096704 137.096855 363.44893401 140.021092 355.91683801 143.16753799L365.314667 165.664463 377.935979 144.804613 255.154767 70.51550201 238.88952999 60.67417401 225.37987801 74.049489 87.219113 210.836425 72.97242599 224.941449 84.05896601 241.644992 157.47379799 352.25551799 177.78752601 338.772813 156.04451399 327.74229799C151.33643401 337.02272 146.99904999 346.509743 143.067323 356.128497L165.635683 365.353459 160.050276 341.620907 18.79554499 374.864917 0 379.28840999 0 398.59747001 0 590.247401 0 610.201867 19.560572 614.147083 154.44124099 641.351467 159.26162198 617.451787 136.25634201 625.52569002C139.682853 635.288979 143.513008 644.93018199 147.71909001 654.377779L169.992425 644.46166199 149.333613 631.513907 71.392628 755.872779 60.94464 772.543085 75.03114301 786.277348 214.01443799 921.785293 227.881289 935.305393 244.18813001 924.856971 364.008004 848.08377001 350.854609 827.555277 340.519036 849.637097C348.675428 853.454763 356.968563 857.002997 365.342891 860.257811L374.17527001 837.532937 350.50902199 843.392932 384.60618201 981.098091 389.192156 999.61904601 408.272431 999.61904601 604.84630399 999.619049 624.59593599 999.619049 628.69606199 980.29970599 656.615319 848.747183 632.76556199 843.685572 640.48918399 866.810807C649.912247 863.663588 659.243565 860.157199 668.41363799 856.318227L658.998519 833.828531 646.519381 854.773745 774.08197101 930.77542201 790.17200601 940.36184999 803.581897 927.286545 942.565193 791.770995 957.136469 777.56328099 945.761519 760.687509 867.64220801 644.790413 847.42509399 658.41756199 869.244171 669.296841C873.230259 661.30249399 876.932843 653.18179799 880.32828199 644.985685L857.803703 635.65432999ZM731.428572 499.809523C731.428572 385.355085 638.644915 292.571428 524.190477 292.571428 409.736036 292.571428 316.95238201 385.355085 316.95238201 499.809523 316.95238201 614.263964 409.736036 707.04761799 524.190477 707.04761799 553.504879 707.04761799 582.005801 700.942889 608.253005 689.28262 620.558583 683.815889 626.10256599 669.408589 620.635836 657.10301001 615.169107 644.79743401 600.761807 639.253451 588.456228 644.720179 568.411953 653.624811 546.651767 658.28571501 524.190477 658.28571501 436.66649399 658.28571501 365.71428499 587.33350601 365.71428499 499.809523 365.71428499 412.28554 436.66649399 341.333333 524.190477 341.333333 611.71446 341.333333 682.666667 412.28554 682.666667 499.809523 682.666667 511.374255 681.43199399 522.76239999 679.00778199 533.847245 676.130985 547.00157399 684.462569 559.99737399 697.61689799 562.874172 710.77123001 565.75096999 723.767027 557.41938601 726.643825 544.26505601 729.81523799 529.76358201 731.428572 514.882835 731.428572 499.809523Z" p-id="1107"></path></svg>